<!--?xml version="1.0" standalone="no"?-->
              <svg id="sw-js-blob-svg" viewBox="0 0 100 100" xmlns="http://www.w3.org/2000/svg" version="1.1">
                    <defs> 
                        <linearGradient id="sw-gradient" x1="0" x2="1" y1="1" y2="0">
                            <stop id="stop1" stop-color="rgba(60, 114, 157, 0.26)" offset="0%"></stop>
                            <stop id="stop2" stop-color="rgba(60, 114, 157, 0.26)" offset="100%"></stop>
                        </linearGradient>
                    </defs>
                <path fill="#326086" d="M23.7,-27.5C31.7,-21.5,39.9,-15,40.9,-7.5C42,0.1,35.9,8.6,29.7,15.2C23.6,21.8,17.5,26.5,9.9,30.8C2.3,35.2,-6.7,39.2,-15,37.7C-23.2,36.2,-30.7,29.1,-34.1,20.9C-37.5,12.6,-36.7,3.1,-35.6,-6.7C-34.4,-16.6,-32.8,-26.9,-26.8,-33.2C-20.8,-39.5,-10.4,-41.9,-1.3,-40.4C7.9,-38.9,15.7,-33.5,23.7,-27.5Z" width="100%" height="100%" transform="translate(50 50)" stroke-width="0" style="transition: all 0.3s ease 0s;" stroke="url(#sw-gradient)"></path>
              </svg>